<svg width="93" height="94" xmlns="http://www.w3.org/2000/svg" xmlns:xlink="http://www.w3.org/1999/xlink" overflow="hidden"><defs><clipPath id="clip0"><rect x="451" y="313" width="93" height="94"/></clipPath><clipPath id="clip1"><rect x="451" y="314" width="92" height="92"/></clipPath><clipPath id="clip2"><rect x="451" y="314" width="92" height="92"/></clipPath><clipPath id="clip3"><rect x="451" y="314" width="93" height="92"/></clipPath><clipPath id="clip4"><rect x="470" y="390" width="74" height="16"/></clipPath><clipPath id="clip5"><rect x="451" y="314" width="36" height="22"/></clipPath><clipPath id="clip6"><rect x="514" y="314" width="30" height="44"/></clipPath><clipPath id="clip7"><rect x="451" y="314" width="93" height="92"/></clipPath></defs><g clip-path="url(#clip0)" transform="translate(-451 -313)"><g clip-path="url(#clip1)"><g clip-path="url(#clip2)"><g clip-path="url(#clip3)"><path d="M56.4855 139.563 147.893 139.563 147.893 48.1555 56.4855 48.1555Z" fill="#E6E2D3" transform="matrix(1.00633 0 -0 1 394.217 266.256)"/></g><g clip-path="url(#clip4)"><path d="M76.6748 139.563 147.893 139.563 147.893 124.696 76.6748 124.696Z" fill="#FFDD00" transform="matrix(1.00633 0 -0 1 394.217 266.256)"/></g><g clip-path="url(#clip5)"><path d="M56.2478 68.505 90.3685 68.505 90.3685 48.0005 56.2478 48.0005Z" fill="#00447B" transform="matrix(1.00633 0 -0 1 394.217 266.256)"/></g><g clip-path="url(#clip6)"><path d="M120.107 90.6114 148.012 90.6114 148.012 48.1555 120.107 48.1555Z" fill="#B30638" transform="matrix(1.00633 0 -0 1 394.217 266.256)"/></g><g clip-path="url(#clip7)"><path d="M148.084 96.1302 148.084 90.6527 120.5 90.6527 120.5 47.923 115.022 47.923 115.022 119.921 95.1432 119.921 95.1432 48.1555 89.6657 48.1555 89.6657 67.8797 56.4855 67.8797 56.4855 73.3572 89.6657 73.3572 89.6657 119.921 56.4855 119.921 56.4855 125.399 71.9775 125.399 71.9775 139.408 77.455 139.408 77.455 125.399 147.893 125.399 147.893 119.921 120.5 119.921 120.5 96.1302 148.084 96.1302" fill="#251B06" transform="matrix(1.00633 0 -0 1 394.217 266.256)"/></g><path d="M215.183 108.868 209.659 108.868 208.321 98.0939C207.768 93.3553 207.675 92.296 207.448 87.9191L207.262 87.8726C205.742 91.9704 205.329 92.9833 203.35 97.3136L198.007 108.868 194.415 108.868 189.165 97.4944C187.233 93.2623 186.773 92.203 185.253 88.1052L185.067 88.1465C184.84 92.5233 184.747 93.6757 184.189 98.2799L182.856 108.868 177.885 108.868 181.936 78.6642 186.54 78.6642 193.955 94.9211C195.289 97.913 195.614 98.6054 196.673 101.458L196.808 101.458C197.821 98.652 198.1 97.9595 199.479 94.9211L206.848 78.6642 211.272 78.6642 215.183 108.868" fill="#251B06" transform="matrix(1.00633 0 -0 1 394.217 266.256)"/><path d="M224.505 92.9833C224.505 99.7526 228.738 104.589 234.68 104.589 240.065 104.589 243.754 100.492 243.754 94.456 243.754 87.8261 239.47 82.8085 233.802 82.8085 228.278 82.8085 224.505 86.9063 224.505 92.9833ZM249.785 93.8152C249.785 103.163 243.336 109.607 233.941 109.607 225.012 109.607 218.423 102.884 218.423 93.7222 218.423 84.6016 225.239 77.8788 234.541 77.8788 243.201 77.8788 249.785 84.7877 249.785 93.8152" fill="#251B06" transform="matrix(1.00633 0 -0 1 394.217 266.256)"/><path d="M258.192 78.1578 271.452 93.2158C274.03 96.1612 274.583 96.8537 276.748 99.7061L276.934 99.6596C276.655 96.0734 276.609 95.1949 276.609 91.278L276.609 78.6642 281.766 78.6642 281.766 108.408 278.5 109.333 265.096 94.1356C262.476 91.1436 261.964 90.4977 259.804 87.6453L259.618 87.6866C259.897 91.278 259.944 92.1565 259.944 96.0734L259.944 108.868 254.787 108.868 254.787 79.1241 258.192 78.1578" fill="#251B06" transform="matrix(1.00633 0 -0 1 394.217 266.256)"/><path d="M293.935 103.303C293.935 103.804 293.935 103.897 293.801 104.357 295.227 104.589 295.961 104.636 297.392 104.636 301.857 104.636 304.849 103.623 306.694 101.504 308.306 99.6596 309.226 97.081 309.226 94.3216 309.226 87.1854 304.343 82.9946 295.961 82.9946 294.995 82.9946 294.674 82.9946 293.801 83.0824 293.935 83.5423 293.935 83.6818 293.935 84.1882ZM288.318 78.8916C292.049 78.5712 294.028 78.4317 296.7 78.4317 308.306 78.4317 315.21 84.1882 315.21 93.9031 315.21 98.9723 313.096 103.344 309.314 106.109 306.601 108.134 302.183 109.101 295.915 109.101 293.382 109.101 291.269 108.961 288.318 108.687L288.318 78.8916" fill="#251B06" transform="matrix(1.00633 0 -0 1 394.217 266.256)"/><path d="M331.219 93.2623C333.244 93.2623 335.223 90.7302 335.223 88.1052 335.223 84.6481 332.877 82.762 328.454 82.762 327.86 82.762 327.214 82.762 325.689 82.8085 325.829 83.2684 325.829 83.408 325.829 83.9144L325.829 92.3373C325.829 92.8437 325.829 92.9367 325.689 93.3966 326.154 93.2623 326.242 93.2623 326.754 93.2623ZM320.212 78.8037C323.71 78.4317 325.602 78.3387 328.408 78.3387 336.329 78.3387 340.84 81.6562 340.84 87.4127 340.84 91.2366 338.954 93.9031 335.13 95.5618 335.642 96.1612 335.776 96.3473 336.236 97.0345L344.204 108.868 337.621 108.868 330.159 97.3136 326.754 97.3136C326.242 97.3136 326.154 97.3136 325.689 97.1741 325.829 97.634 325.829 97.727 325.829 98.2334L325.829 108.868 320.212 108.868 320.212 78.8037" fill="#251B06" transform="matrix(1.00633 0 -0 1 394.217 266.256)"/><path d="M347.419 108.868 353.036 108.868 353.036 78.6642 347.419 78.6642Z" fill="#251B06" transform="matrix(1.00633 0 -0 1 394.217 266.256)"/><path d="M372.083 96.7142C374.016 96.7142 374.341 96.7142 376 96.8072 375.307 95.3344 375.173 95.0089 374.434 93.2623L373.561 91.0506C372.455 88.2395 372.228 87.5988 371.396 84.9737L371.256 84.9737C370.383 87.5988 370.104 88.3325 368.998 91.0506L368.125 93.1693C367.344 95.1019 367.2 95.2879 366.518 96.8072 368.171 96.7142 368.538 96.7142 370.476 96.7142ZM377.38 100.672 365.086 100.672 361.774 108.868 356.338 108.868 369.277 78.1578 373.835 78.1578 386.634 108.868 380.651 108.868 377.38 100.672" fill="#251B06" transform="matrix(1.00633 0 -0 1 394.217 266.256)"/><path d="M393.347 78.1578 406.607 93.2158C409.185 96.1612 409.738 96.8537 411.903 99.7061L412.089 99.6596C411.81 96.0734 411.764 95.1949 411.764 91.278L411.764 78.6642 416.921 78.6642 416.921 108.408 413.655 109.333 400.251 94.1356C397.626 91.1436 397.119 90.4977 394.959 87.6453L394.773 87.6866C395.052 91.278 395.094 92.1565 395.094 96.0734L395.094 108.868 389.936 108.868 389.936 79.1241 393.347 78.1578" fill="#251B06" transform="matrix(1.00633 0 -0 1 394.217 266.256)"/><path d="M421.019 78.6281 425.659 78.6281 425.489 79.5065 423.799 79.5065 423.799 83.9195 422.714 83.9195 422.714 79.5065 421.019 79.5065 421.019 78.6281" fill="#251B06" transform="matrix(1.00633 0 -0 1 394.217 266.256)"/><path d="M426.258 78.6281 427.623 78.6281 428.315 81.2738C428.398 81.5787 428.46 81.8577 428.501 82.1109 428.543 81.8319 428.61 81.5477 428.692 81.2531L429.405 78.6281 430.765 78.6281 431.235 83.9195 430.191 83.9195 429.995 81.0929C429.969 80.7312 429.953 80.4367 429.953 80.2093 429.902 80.4935 429.834 80.7622 429.757 81.0206L428.915 83.9195 428.01 83.9195 427.256 81.1394C427.163 80.7984 427.096 80.4832 427.044 80.199 427.044 80.447 427.034 80.7674 427.003 81.1498L426.822 83.9195 425.762 83.9195 426.258 78.6281" fill="#251B06" transform="matrix(1.00633 0 -0 1 394.217 266.256)"/></g></g></g></svg>